<svg version="1.1" xmlns="http://www.w3.org/2000/svg" xmlns:xlink="http://www.w3.org/1999/xlink" width="386" height="153"><defs/><g><g transform="translate(-60,-334) scale(1,1)"><path fill="#C0C0C0" stroke="none" d="M 137 395 L 176 395 Q 186 395 186 405 L 186 424 Q 186 434 176 434 L 137 434 Q 127 434 127 424 L 127 405 Q 127 395 137 395 Z" opacity="0.2"/></g><g transform="translate(-60,-334) scale(1,1)"><path fill="#ffffff" stroke="none" d="M 130 388 L 169 388 Q 179 388 179 398 L 179 417 Q 179 427 169 427 L 130 427 Q 120 427 120 417 L 120 398 Q 120 388 130 388 Z"/></g><g transform="translate(-60,-334) scale(1,1)"><path fill="none" stroke="#000000" d="M 130 388 L 169 388 Q 179 388 179 398 L 179 417 Q 179 427 169 427 L 130 427 Q 120 427 120 417 L 120 398 Q 120 388 130 388 Z" stroke-miterlimit="10"/></g><g transform="translate(-60,-334) scale(1,1)"><g><path fill="none" stroke="none"/><text fill="#000000" stroke="none" font-family="Arial" font-size="13px" font-style="normal" font-weight="bold" text-decoration="none" x="130.5" y="407.5">Empty</text></g></g><g transform="translate(-60,-334) scale(1,1)"><path fill="#C0C0C0" stroke="none" d="M 337 395 L 376 395 Q 386 395 386 405 L 386 424 Q 386 434 376 434 L 337 434 Q 327 434 327 424 L 327 405 Q 327 395 337 395 Z" opacity="0.2"/></g><g transform="translate(-60,-334) scale(1,1)"><path fill="#ffffff" stroke="none" d="M 330 388 L 369 388 Q 379 388 379 398 L 379 417 Q 379 427 369 427 L 330 427 Q 320 427 320 417 L 320 398 Q 320 388 330 388 Z"/></g><g transform="translate(-60,-334) scale(1,1)"><path fill="none" stroke="#000000" d="M 330 388 L 369 388 Q 379 388 379 398 L 379 417 Q 379 427 369 427 L 330 427 Q 320 427 320 417 L 320 398 Q 320 388 330 388 Z" stroke-miterlimit="10"/></g><g transform="translate(-60,-334) scale(1,1)"><g><path fill="none" stroke="none"/><text fill="#000000" stroke="none" font-family="Arial" font-size="13px" font-style="normal" font-weight="bold" text-decoration="none" x="334" y="407.5">Filled</text></g></g><g transform="translate(-60,-334) scale(1,1)"><path fill="#C0C0C0" stroke="none" d="M 87 360.5 C 87 355.2532944 91.2532944 351 96.5 351 C 101.7467056 351 106 355.2532944 106 360.5 C 106 365.7467056 101.7467056 370 96.5 370 C 91.2532944 370 87 365.7467056 87 360.5 Z" opacity="0.2"/></g><g transform="translate(-60,-334) scale(1,1)"><path fill="#000000" stroke="none" d="M 80 353.5 C 80 348.2532944 84.2532944 344 89.5 344 C 94.7467056 344 99 348.2532944 99 353.5 C 99 358.7467056 94.7467056 363 89.5 363 C 84.2532944 363 80 358.7467056 80 353.5 Z"/></g><g transform="translate(-60,-334) scale(1,1)"><path fill="none" stroke="#000000" d="M 100 363 L 127 387" stroke-miterlimit="10"/></g><g transform="translate(-60,-334) scale(1,1)"><path fill="none" stroke="#000000" d="M 116.60767073265008 383.3945191168192 L 127 387 L 122.20097348466905 377.1020535207978" stroke-miterlimit="10"/></g><g transform="translate(-60,-334) scale(1,1)"><path fill="none" stroke="#000000" d="M 180 400 Q 248 384 319 400" stroke-miterlimit="10"/></g><g transform="translate(-60,-334) scale(1,1)"><path fill="none" stroke="#000000" d="M 308.16052669496486 401.87238309900266 L 319 400 L 310.01136013523524 393.659309707803" stroke-miterlimit="10"/></g><g transform="translate(-60,-334) scale(1,1)"><g><path fill="none" stroke="none"/><text fill="#000000" stroke="none" font-family="Arial" font-size="13px" font-style="normal" font-weight="normal" text-decoration="none" x="237" y="389">PUT</text></g></g><g transform="translate(-60,-334) scale(1,1)"><path fill="none" stroke="#000000" d="M 319 412 Q 248 424 180 412" stroke-miterlimit="10"/></g><g transform="translate(-60,-334) scale(1,1)"><path fill="none" stroke="#000000" d="M 190.73958756222598 409.6206599668646 L 180 412 L 189.27648266457538 417.911587720218" stroke-miterlimit="10"/></g><g transform="translate(-60,-334) scale(1,1)"><g><path fill="none" stroke="none"/><text fill="#000000" stroke="none" font-family="Arial" font-size="13px" font-style="normal" font-weight="normal" text-decoration="none" x="215" y="436">GET, DROP</text></g></g><g transform="translate(-60,-334) scale(1,1)"><path fill="none" stroke="#000000" d="M 168 427 L 168 456 L 128 456 L 128 427" stroke-miterlimit="10"/></g><g transform="translate(-60,-334) scale(1,1)"><path fill="none" stroke="#000000" d="M 132.209517756016 437.16267485762415 L 128 427 L 123.79048224398402 437.16267485762415" stroke-miterlimit="10"/></g><g transform="translate(-60,-334) scale(1,1)"><g><path fill="none" stroke="none"/><text fill="#000000" stroke="none" font-family="Arial" font-size="13px" font-style="normal" font-weight="normal" text-decoration="none" x="70" y="478">LOOK, QUIT, GET, DROP</text></g></g><g transform="translate(-60,-334) scale(1,1)"><path fill="none" stroke="#000000" d="M 349 388 L 349 368 L 408 368 L 408 407 L 379 407" stroke-miterlimit="10"/></g><g transform="translate(-60,-334) scale(1,1)"><path fill="none" stroke="#000000" d="M 389.16267485762415 402.790482243984 L 379 407 L 389.16267485762415 411.209517756016" stroke-miterlimit="10"/></g><g transform="translate(-60,-334) scale(1,1)"><g><path fill="none" stroke="none"/><text fill="#000000" stroke="none" font-family="Arial" font-size="13px" font-style="normal" font-weight="normal" text-decoration="none" x="328" y="364">PUT, LOOK, QUIT</text></g></g></g></svg>